<mxfile host="app.diagrams.net" agent="Mozilla/5.0 (Macintosh; Intel Mac OS X 10_15_7) AppleWebKit/537.36 (KHTML, like Gecko) Chrome/129.0.0.0 Safari/537.36" version="24.8.0">
  <diagram name="Страница — 1" id="2dHDmkU6oCWq-XEGlKxD">
    <mxGraphModel grid="1" page="1" gridSize="10" guides="1" tooltips="1" connect="1" arrows="1" fold="1" pageScale="1" pageWidth="827" pageHeight="1169" math="0" shadow="0">
      <root>
        <mxCell id="0" />
        <mxCell id="1" parent="0" />
        <mxCell id="FQ0_O6sxlsVky0RWdoEz-2" value="&lt;b&gt;&lt;font style=&quot;font-size: 18px;&quot;&gt;Заголовок&lt;/font&gt;&lt;/b&gt;" style="rounded=0;whiteSpace=wrap;html=1;" vertex="1" parent="1">
          <mxGeometry x="74" y="170" width="246" height="90" as="geometry" />
        </mxCell>
        <mxCell id="FQ0_O6sxlsVky0RWdoEz-3" value="&lt;font style=&quot;font-size: 14px;&quot;&gt;&lt;i&gt;Добавление видео в&amp;nbsp; список избранное&lt;/i&gt;&lt;/font&gt;" style="rounded=0;whiteSpace=wrap;html=1;" vertex="1" parent="1">
          <mxGeometry x="320" y="170" width="440" height="90" as="geometry" />
        </mxCell>
        <mxCell id="FQ0_O6sxlsVky0RWdoEz-5" value="&lt;b style=&quot;&quot;&gt;&lt;font style=&quot;font-size: 18px;&quot;&gt;Акторы&lt;/font&gt;&lt;/b&gt;" style="rounded=0;whiteSpace=wrap;html=1;" vertex="1" parent="1">
          <mxGeometry x="74" y="260" width="246" height="90" as="geometry" />
        </mxCell>
        <mxCell id="FQ0_O6sxlsVky0RWdoEz-6" value="&lt;b style=&quot;&quot;&gt;&lt;font style=&quot;font-size: 18px;&quot;&gt;Предусловие&lt;/font&gt;&lt;/b&gt;" style="rounded=0;whiteSpace=wrap;html=1;" vertex="1" parent="1">
          <mxGeometry x="74" y="350" width="246" height="90" as="geometry" />
        </mxCell>
        <mxCell id="FQ0_O6sxlsVky0RWdoEz-7" value="&lt;b style=&quot;&quot;&gt;&lt;font style=&quot;font-size: 18px;&quot;&gt;Ограничение&lt;/font&gt;&lt;/b&gt;" style="rounded=0;whiteSpace=wrap;html=1;" vertex="1" parent="1">
          <mxGeometry x="74" y="440" width="246" height="90" as="geometry" />
        </mxCell>
        <mxCell id="FQ0_O6sxlsVky0RWdoEz-8" value="&lt;b style=&quot;&quot;&gt;&lt;font style=&quot;font-size: 18px;&quot;&gt;Триггер&lt;/font&gt;&lt;/b&gt;" style="rounded=0;whiteSpace=wrap;html=1;" vertex="1" parent="1">
          <mxGeometry x="74" y="530" width="246" height="120" as="geometry" />
        </mxCell>
        <mxCell id="FQ0_O6sxlsVky0RWdoEz-9" value="&lt;b style=&quot;&quot;&gt;&lt;font style=&quot;font-size: 18px;&quot;&gt;Основной&lt;/font&gt;&lt;/b&gt;&lt;div&gt;&lt;font style=&quot;font-size: 18px;&quot;&gt;&lt;b&gt;сценарий&lt;/b&gt;&lt;/font&gt;&lt;/div&gt;" style="rounded=0;whiteSpace=wrap;html=1;" vertex="1" parent="1">
          <mxGeometry x="74" y="650" width="246" height="290" as="geometry" />
        </mxCell>
        <mxCell id="FQ0_O6sxlsVky0RWdoEz-10" value="&lt;b style=&quot;&quot;&gt;&lt;font style=&quot;font-size: 18px;&quot;&gt;Альтернативный&lt;/font&gt;&lt;/b&gt;&lt;div&gt;&lt;font style=&quot;font-size: 18px;&quot;&gt;&lt;b&gt;сценарий&lt;/b&gt;&lt;/font&gt;&lt;/div&gt;" style="rounded=0;whiteSpace=wrap;html=1;" vertex="1" parent="1">
          <mxGeometry x="74" y="940" width="246" height="220" as="geometry" />
        </mxCell>
        <mxCell id="FQ0_O6sxlsVky0RWdoEz-11" value="&lt;b style=&quot;&quot;&gt;&lt;font style=&quot;font-size: 18px;&quot;&gt;Результат/Критерии&amp;nbsp;&lt;/font&gt;&lt;/b&gt;&lt;div&gt;&lt;b style=&quot;&quot;&gt;&lt;font style=&quot;font-size: 18px;&quot;&gt;успеха&lt;/font&gt;&lt;/b&gt;&lt;/div&gt;" style="rounded=0;whiteSpace=wrap;html=1;" vertex="1" parent="1">
          <mxGeometry x="74" y="1340" width="246" height="90" as="geometry" />
        </mxCell>
        <mxCell id="FQ0_O6sxlsVky0RWdoEz-12" value="&lt;span style=&quot;font-size: 14px;&quot;&gt;&lt;i&gt;1. Пользователь веб-сервиса&lt;/i&gt;&lt;/span&gt;&lt;div style=&quot;text-align: justify;&quot;&gt;&lt;span style=&quot;font-size: 14px;&quot;&gt;&lt;i&gt;2. Cистема&lt;/i&gt;&lt;/span&gt;&lt;/div&gt;" style="rounded=0;whiteSpace=wrap;html=1;" vertex="1" parent="1">
          <mxGeometry x="320" y="260" width="440" height="90" as="geometry" />
        </mxCell>
        <mxCell id="FQ0_O6sxlsVky0RWdoEz-13" value="&lt;i&gt;&lt;font style=&quot;font-size: 14px;&quot;&gt;&amp;nbsp;Пользователь зарегистрирован и&amp;nbsp;&lt;/font&gt;&lt;/i&gt;&lt;div&gt;&lt;i&gt;&lt;font style=&quot;font-size: 14px;&quot;&gt;авторизован в веб-сервисе&lt;/font&gt;&lt;/i&gt;&lt;/div&gt;" style="rounded=0;whiteSpace=wrap;html=1;" vertex="1" parent="1">
          <mxGeometry x="320" y="350" width="440" height="90" as="geometry" />
        </mxCell>
        <mxCell id="FQ0_O6sxlsVky0RWdoEz-14" value="&lt;font style=&quot;font-size: 14px;&quot;&gt;&lt;i&gt;Видео не должно находиться уже в списке избранных&lt;/i&gt;&lt;/font&gt;" style="rounded=0;whiteSpace=wrap;html=1;" vertex="1" parent="1">
          <mxGeometry x="320" y="440" width="440" height="90" as="geometry" />
        </mxCell>
        <mxCell id="FQ0_O6sxlsVky0RWdoEz-15" value="&lt;div style=&quot;text-align: justify;&quot;&gt;&lt;i style=&quot;font-size: 14px; background-color: initial;&quot;&gt;1. Пользователь нажимает кнопку добавления&lt;/i&gt;&lt;/div&gt;&lt;div style=&quot;text-align: justify;&quot;&gt;&lt;span style=&quot;font-size: 14px;&quot;&gt;&lt;i&gt;&amp;nbsp; &amp;nbsp; &amp;nbsp; &amp;nbsp; видео в избранное&lt;/i&gt;&lt;/span&gt;&lt;/div&gt;&lt;div style=&quot;text-align: justify;&quot;&gt;&lt;span style=&quot;font-size: 14px;&quot;&gt;&lt;i&gt;&lt;br&gt;&lt;/i&gt;&lt;/span&gt;&lt;/div&gt;&lt;div style=&quot;text-align: justify;&quot;&gt;&lt;span style=&quot;font-size: 14px;&quot;&gt;&lt;i&gt;2. Пользователь нажимает сердечко в углу&lt;/i&gt;&lt;/span&gt;&lt;/div&gt;&lt;div style=&quot;text-align: justify;&quot;&gt;&lt;span style=&quot;font-size: 14px;&quot;&gt;&lt;i&gt;&amp;nbsp; &amp;nbsp; &amp;nbsp; &amp;nbsp; видео&amp;nbsp; &amp;nbsp; &amp;nbsp; &amp;nbsp; &amp;nbsp;&amp;nbsp;&lt;/i&gt;&lt;/span&gt;&lt;/div&gt;" style="rounded=0;whiteSpace=wrap;html=1;" vertex="1" parent="1">
          <mxGeometry x="320" y="530" width="440" height="120" as="geometry" />
        </mxCell>
        <mxCell id="FQ0_O6sxlsVky0RWdoEz-16" value="&lt;font style=&quot;font-size: 14px;&quot;&gt;&lt;i&gt;1. Система отображает главную страницу веб-сервиса&lt;/i&gt;&lt;/font&gt;&lt;div style=&quot;text-align: justify;&quot;&gt;&lt;i&gt;&lt;font style=&quot;&quot;&gt;&lt;span style=&quot;font-size: 14px;&quot;&gt;&amp;nbsp;&lt;/span&gt;&lt;font style=&quot;font-size: 14px;&quot;&gt;2. Пользователь выбирает видео и нажимает на него на&amp;nbsp;&lt;/font&gt;&lt;/font&gt;&lt;/i&gt;&lt;/div&gt;&lt;div style=&quot;text-align: justify;&quot;&gt;&lt;i&gt;&lt;font style=&quot;&quot;&gt;&lt;font style=&quot;font-size: 14px;&quot;&gt;&amp;nbsp; &amp;nbsp; &amp;nbsp; &amp;nbsp; главной странице&lt;/font&gt;&lt;/font&gt;&lt;/i&gt;&lt;/div&gt;&lt;div style=&quot;text-align: justify;&quot;&gt;&lt;i&gt;&lt;font style=&quot;font-size: 14px;&quot;&gt;&amp;nbsp;3. Система отображает странницу с выбранным видео&lt;/font&gt;&lt;/i&gt;&lt;/div&gt;&lt;div style=&quot;text-align: justify;&quot;&gt;&lt;i&gt;&lt;font style=&quot;font-size: 14px;&quot;&gt;&amp;nbsp;4. Пользователь нажимает на кнопку добавить на&amp;nbsp;&lt;/font&gt;&lt;/i&gt;&lt;/div&gt;&lt;div style=&quot;text-align: justify;&quot;&gt;&lt;i&gt;&lt;font style=&quot;font-size: 14px;&quot;&gt;&amp;nbsp; &amp;nbsp; &amp;nbsp; &amp;nbsp; странице с выбранным видео&lt;/font&gt;&lt;/i&gt;&lt;/div&gt;&lt;div style=&quot;text-align: justify;&quot;&gt;&lt;i&gt;&lt;font style=&quot;font-size: 14px;&quot;&gt;&amp;nbsp;5. Система меняет цвет кнопки с серого на зеленый и&lt;/font&gt;&lt;/i&gt;&lt;/div&gt;&lt;div style=&quot;text-align: justify;&quot;&gt;&lt;i&gt;&lt;font style=&quot;font-size: 14px;&quot;&gt;&amp;nbsp; &amp;nbsp; &amp;nbsp; &amp;nbsp; добавляет видео в список &quot;избранное&quot; на странице&lt;/font&gt;&lt;/i&gt;&lt;/div&gt;&lt;div style=&quot;text-align: justify;&quot;&gt;&lt;i&gt;&lt;font style=&quot;font-size: 14px;&quot;&gt;&amp;nbsp; &amp;nbsp; &amp;nbsp; &amp;nbsp; с выбранным видео&lt;/font&gt;&lt;/i&gt;&lt;/div&gt;&lt;div style=&quot;text-align: justify;&quot;&gt;&lt;i&gt;&lt;font style=&quot;font-size: 14px;&quot;&gt;&amp;nbsp;6. Пользователь нажимает кнопку &quot;избранное&quot;&amp;nbsp; на&amp;nbsp;&lt;/font&gt;&lt;/i&gt;&lt;/div&gt;&lt;div style=&quot;text-align: justify;&quot;&gt;&lt;i&gt;&lt;font style=&quot;font-size: 14px;&quot;&gt;&amp;nbsp; &amp;nbsp; &amp;nbsp; &amp;nbsp; странице с выбранным видео&lt;/font&gt;&lt;/i&gt;&lt;/div&gt;&lt;div style=&quot;text-align: justify;&quot;&gt;&lt;i&gt;&lt;font style=&quot;font-size: 14px;&quot;&gt;&amp;nbsp;7. Система отображает страницу со списоком &quot;избранное&quot;&lt;/font&gt;&lt;/i&gt;&lt;/div&gt;&lt;div style=&quot;text-align: justify;&quot;&gt;&lt;i&gt;&lt;font style=&quot;font-size: 14px;&quot;&gt;&amp;nbsp;8. Пользователь находит видео, которое добавил, на&amp;nbsp;&lt;/font&gt;&lt;/i&gt;&lt;/div&gt;&lt;div style=&quot;text-align: justify;&quot;&gt;&lt;i&gt;&lt;font style=&quot;font-size: 14px;&quot;&gt;&amp;nbsp; &amp;nbsp; &amp;nbsp; &amp;nbsp; странице со списком&amp;nbsp;&lt;/font&gt;&lt;/i&gt;&lt;i style=&quot;background-color: initial;&quot;&gt;&lt;font style=&quot;font-size: 14px;&quot;&gt;&quot;избранное&quot;&lt;/font&gt;&lt;/i&gt;&lt;/div&gt;" style="rounded=0;whiteSpace=wrap;html=1;align=center;" vertex="1" parent="1">
          <mxGeometry x="320" y="650" width="440" height="290" as="geometry" />
        </mxCell>
        <mxCell id="FQ0_O6sxlsVky0RWdoEz-18" value="&lt;i&gt;&lt;font style=&quot;font-size: 14px;&quot;&gt;Видео успешно добавлено в избранное и отображается&amp;nbsp;&lt;/font&gt;&lt;/i&gt;&lt;div&gt;&lt;i&gt;&lt;font style=&quot;font-size: 14px;&quot;&gt;в соотвецтвующем отделе&lt;/font&gt;&lt;/i&gt;&lt;/div&gt;" style="rounded=0;whiteSpace=wrap;html=1;" vertex="1" parent="1">
          <mxGeometry x="320" y="1340" width="440" height="90" as="geometry" />
        </mxCell>
        <mxCell id="FQ0_O6sxlsVky0RWdoEz-19" value="&lt;div style=&quot;text-align: justify;&quot;&gt;&lt;i&gt;&lt;font style=&quot;&quot;&gt;&lt;font style=&quot;font-size: 14px;&quot;&gt;2a. Пользователь выбирает видео и нажимает&amp;nbsp;&lt;/font&gt;&lt;/font&gt;&lt;/i&gt;&lt;/div&gt;&lt;div style=&quot;text-align: justify;&quot;&gt;&lt;i&gt;&lt;font style=&quot;&quot;&gt;&lt;font style=&quot;font-size: 14px;&quot;&gt;&amp;nbsp; &amp;nbsp; &amp;nbsp; &amp;nbsp; &amp;nbsp; на сердечко в углу видео на главной странице&lt;/font&gt;&lt;/font&gt;&lt;/i&gt;&lt;/div&gt;&lt;div style=&quot;text-align: justify;&quot;&gt;&lt;i&gt;&lt;font style=&quot;font-size: 14px;&quot;&gt;3a. Система меняет цвет сердечка на главной странице&amp;nbsp;&lt;/font&gt;&lt;/i&gt;&lt;/div&gt;&lt;div style=&quot;text-align: justify;&quot;&gt;&lt;i style=&quot;background-color: initial;&quot;&gt;&lt;font style=&quot;font-size: 14px;&quot;&gt;&amp;nbsp; &amp;nbsp; &amp;nbsp; &amp;nbsp; &amp;nbsp; с серого на красный и добавляет видео&amp;nbsp;&lt;/font&gt;&lt;/i&gt;&lt;/div&gt;&lt;div style=&quot;text-align: justify;&quot;&gt;&lt;i style=&quot;background-color: initial;&quot;&gt;&lt;font style=&quot;font-size: 14px;&quot;&gt;&amp;nbsp; &amp;nbsp; &amp;nbsp; &amp;nbsp; &amp;nbsp; в список&amp;nbsp;&lt;/font&gt;&lt;/i&gt;&lt;i style=&quot;background-color: initial;&quot;&gt;&lt;font style=&quot;font-size: 14px;&quot;&gt;&quot;избранное&quot;&amp;nbsp;&lt;/font&gt;&lt;/i&gt;&lt;i style=&quot;background-color: initial;&quot;&gt;&lt;font style=&quot;font-size: 14px;&quot;&gt;&amp;nbsp;&amp;nbsp;&lt;/font&gt;&lt;/i&gt;&lt;/div&gt;&lt;div style=&quot;text-align: justify;&quot;&gt;&lt;i&gt;&lt;font style=&quot;font-size: 14px;&quot;&gt;4a. Пользователь нажимает кнопку избранное на&amp;nbsp;&lt;/font&gt;&lt;/i&gt;&lt;/div&gt;&lt;div style=&quot;text-align: justify;&quot;&gt;&lt;i&gt;&lt;font style=&quot;font-size: 14px;&quot;&gt;&amp;nbsp; &amp;nbsp; &amp;nbsp; &amp;nbsp; &amp;nbsp; главной странице&lt;/font&gt;&lt;/i&gt;&lt;/div&gt;&lt;div style=&quot;text-align: justify;&quot;&gt;&lt;i&gt;&lt;font style=&quot;font-size: 14px;&quot;&gt;5a. Система отображает страницу со&lt;/font&gt;&lt;/i&gt;&lt;/div&gt;&lt;div style=&quot;text-align: justify;&quot;&gt;&lt;i&gt;&lt;font style=&quot;font-size: 14px;&quot;&gt;&amp;nbsp; &amp;nbsp; &amp;nbsp; &amp;nbsp; &amp;nbsp;списком &quot;избранное&quot;&lt;/font&gt;&lt;/i&gt;&lt;/div&gt;&lt;div style=&quot;text-align: justify;&quot;&gt;&lt;i&gt;&lt;font style=&quot;font-size: 14px;&quot;&gt;6a. Пользователь видит видео, которое добавил,&lt;/font&gt;&lt;/i&gt;&lt;/div&gt;&lt;div style=&quot;text-align: justify;&quot;&gt;&lt;i&gt;&lt;font style=&quot;font-size: 14px;&quot;&gt;&amp;nbsp; &amp;nbsp; &amp;nbsp; &amp;nbsp; &amp;nbsp;на странице со списком&amp;nbsp;&lt;/font&gt;&lt;/i&gt;&lt;i style=&quot;background-color: initial;&quot;&gt;&lt;font style=&quot;font-size: 14px;&quot;&gt;&quot;избранное&quot;&lt;/font&gt;&lt;/i&gt;&lt;/div&gt;" style="rounded=0;whiteSpace=wrap;html=1;align=center;" vertex="1" parent="1">
          <mxGeometry x="320" y="940" width="440" height="220" as="geometry" />
        </mxCell>
        <mxCell id="5rTVIxUmGq99QbEu-gEz-2" value="" style="verticalLabelPosition=bottom;verticalAlign=top;html=1;shape=mxgraph.basic.heart;fillColor=#647687;strokeColor=#314354;fontColor=#ffffff;" vertex="1" parent="1">
          <mxGeometry x="460" y="620" width="20" height="10" as="geometry" />
        </mxCell>
        <mxCell id="5rTVIxUmGq99QbEu-gEz-3" value="" style="rounded=1;whiteSpace=wrap;html=1;fillColor=#E6E6E6;" vertex="1" parent="1">
          <mxGeometry x="550" y="565" width="100" height="20" as="geometry" />
        </mxCell>
        <mxCell id="5rTVIxUmGq99QbEu-gEz-5" value="" style="verticalLabelPosition=bottom;verticalAlign=top;html=1;shape=mxgraph.basic.heart;fillColor=#666666;" vertex="1" parent="1">
          <mxGeometry x="560" y="570" width="20" height="10" as="geometry" />
        </mxCell>
        <mxCell id="5rTVIxUmGq99QbEu-gEz-6" value="&lt;b&gt;Добавить&lt;/b&gt;" style="text;html=1;align=center;verticalAlign=middle;resizable=0;points=[];autosize=1;strokeColor=none;fillColor=none;" vertex="1" parent="1">
          <mxGeometry x="570" y="560" width="80" height="30" as="geometry" />
        </mxCell>
        <mxCell id="5rTVIxUmGq99QbEu-gEz-8" value="&lt;span style=&quot;font-size: 18px;&quot;&gt;&lt;b&gt;&amp;nbsp; Исключительный&lt;/b&gt;&lt;/span&gt;&lt;div&gt;&lt;span style=&quot;font-size: 18px;&quot;&gt;&lt;b&gt;сценарий&lt;/b&gt;&lt;/span&gt;&lt;/div&gt;" style="rounded=0;whiteSpace=wrap;html=1;" vertex="1" parent="1">
          <mxGeometry x="74" y="1160" width="246" height="180" as="geometry" />
        </mxCell>
        <mxCell id="5rTVIxUmGq99QbEu-gEz-9" value="&lt;br&gt;&lt;div style=&quot;text-align: justify;&quot;&gt;&lt;i&gt;&lt;font style=&quot;font-size: 14px;&quot;&gt;&amp;nbsp;4b. Пользователь нажимает на кнопку добавить на&amp;nbsp;&lt;/font&gt;&lt;/i&gt;&lt;/div&gt;&lt;div style=&quot;text-align: justify;&quot;&gt;&lt;i&gt;&lt;font style=&quot;font-size: 14px;&quot;&gt;&amp;nbsp; &amp;nbsp; &amp;nbsp; &amp;nbsp; странице с выбранным видео&lt;/font&gt;&lt;/i&gt;&lt;/div&gt;&lt;div style=&quot;text-align: justify;&quot;&gt;&lt;i&gt;&lt;font style=&quot;font-size: 14px;&quot;&gt;&amp;nbsp;5b. Система не меняет цвет кнопки на странице&lt;/font&gt;&lt;/i&gt;&lt;/div&gt;&lt;div style=&quot;text-align: justify;&quot;&gt;&lt;i&gt;&lt;font style=&quot;font-size: 14px;&quot;&gt;&amp;nbsp; &amp;nbsp; &amp;nbsp; &amp;nbsp; с выбранным видео и выводит сообщение: &quot;Это&amp;nbsp;&lt;/font&gt;&lt;/i&gt;&lt;/div&gt;&lt;div style=&quot;text-align: justify;&quot;&gt;&lt;i&gt;&lt;font style=&quot;font-size: 14px;&quot;&gt;&amp;nbsp; &amp;nbsp; &amp;nbsp; &amp;nbsp; видео недоступно&lt;/font&gt;&lt;/i&gt;&lt;i style=&quot;background-color: initial;&quot;&gt;&lt;font style=&quot;font-size: 14px;&quot;&gt;&amp;nbsp;или было удалено&quot;&lt;/font&gt;&lt;/i&gt;&lt;/div&gt;&lt;div style=&quot;text-align: justify;&quot;&gt;&lt;i&gt;&lt;font style=&quot;font-size: 14px;&quot;&gt;&amp;nbsp; 6b. Пользователь не добавляет видео в список&amp;nbsp;&lt;/font&gt;&lt;/i&gt;&lt;/div&gt;&lt;div style=&quot;text-align: justify;&quot;&gt;&lt;i&gt;&lt;font style=&quot;font-size: 14px;&quot;&gt;&amp;nbsp; &amp;nbsp; &amp;nbsp; &amp;nbsp; &quot;Избранное&quot;&lt;/font&gt;&lt;/i&gt;&lt;/div&gt;" style="rounded=0;whiteSpace=wrap;html=1;" vertex="1" parent="1">
          <mxGeometry x="320" y="1160" width="440" height="180" as="geometry" />
        </mxCell>
        <mxCell id="5rTVIxUmGq99QbEu-gEz-14" value="&lt;font style=&quot;font-size: 18px;&quot;&gt;&lt;b&gt;Я как пользователь веб-сервиса YouTube, хочу добавлять видео&amp;nbsp;&lt;/b&gt;&lt;/font&gt;&lt;div&gt;&lt;font style=&quot;font-size: 18px;&quot;&gt;&lt;b&gt;в список понравившихся, чтобы в дальнейшем пересматривать их.&lt;/b&gt;&lt;/font&gt;&lt;/div&gt;" style="text;html=1;align=center;verticalAlign=middle;resizable=0;points=[];autosize=1;strokeColor=none;fillColor=none;" vertex="1" parent="1">
          <mxGeometry x="99" y="80" width="630" height="60" as="geometry" />
        </mxCell>
      </root>
    </mxGraphModel>
  </diagram>
</mxfile>
